<mxfile host="Electron" modified="2024-04-18T10:12:50.454Z" agent="Mozilla/5.0 (Windows NT 10.0; Win64; x64) AppleWebKit/537.36 (KHTML, like Gecko) draw.io/23.1.5 Chrome/120.0.6099.109 Electron/28.1.0 Safari/537.36" etag="2j3YpW6og0K__iTKXgqs" version="23.1.5" type="device">
  <diagram name="Page-1" id="pIJavBY0yzTweW4xneVl">
    <mxGraphModel dx="323" dy="763" grid="1" gridSize="10" guides="1" tooltips="1" connect="1" arrows="1" fold="1" page="1" pageScale="1" pageWidth="850" pageHeight="1100" math="0" shadow="0">
      <root>
        <mxCell id="0" />
        <mxCell id="1" parent="0" />
        <mxCell id="FFGb-5vFVpJmypS58oWW-3" style="edgeStyle=orthogonalEdgeStyle;rounded=0;orthogonalLoop=1;jettySize=auto;html=1;exitX=0.5;exitY=1;exitDx=0;exitDy=0;exitPerimeter=0;entryX=0.5;entryY=0;entryDx=0;entryDy=0;" parent="1" source="dBdyuKx9wnMH7rO0jvBw-1" target="FFGb-5vFVpJmypS58oWW-2" edge="1">
          <mxGeometry relative="1" as="geometry" />
        </mxCell>
        <mxCell id="dBdyuKx9wnMH7rO0jvBw-1" value="searchStudent(Siswa *head, int search_nim)" style="strokeWidth=2;html=1;shape=mxgraph.flowchart.start_1;whiteSpace=wrap;" parent="1" vertex="1">
          <mxGeometry x="980" y="20" width="375" height="90" as="geometry" />
        </mxCell>
        <mxCell id="FFGb-5vFVpJmypS58oWW-5" style="edgeStyle=orthogonalEdgeStyle;rounded=0;orthogonalLoop=1;jettySize=auto;html=1;exitX=0.5;exitY=1;exitDx=0;exitDy=0;entryX=0.5;entryY=0;entryDx=0;entryDy=0;" parent="1" source="FFGb-5vFVpJmypS58oWW-2" target="FFGb-5vFVpJmypS58oWW-4" edge="1">
          <mxGeometry relative="1" as="geometry" />
        </mxCell>
        <mxCell id="FFGb-5vFVpJmypS58oWW-2" value="Inisiasi struktur data &lt;i&gt;Siswa&amp;nbsp;&lt;/i&gt;untuk menyimpan data-data pada linked-list" style="rounded=1;whiteSpace=wrap;html=1;absoluteArcSize=1;arcSize=14;strokeWidth=2;" parent="1" vertex="1">
          <mxGeometry x="1007" y="150" width="320" height="50" as="geometry" />
        </mxCell>
        <mxCell id="FFGb-5vFVpJmypS58oWW-4" value="Inisiasi &lt;i&gt;flag&lt;/i&gt;&amp;nbsp;untuk menandai apakah ada nim dengan index yang dimasukkan pengguna, &lt;i&gt;found = 0&lt;/i&gt;" style="rounded=1;whiteSpace=wrap;html=1;absoluteArcSize=1;arcSize=14;strokeWidth=2;" parent="1" vertex="1">
          <mxGeometry x="1007" y="230" width="320" height="50" as="geometry" />
        </mxCell>
        <mxCell id="55WT6WMvb4c44HyrS-Ii-22" style="edgeStyle=orthogonalEdgeStyle;rounded=0;orthogonalLoop=1;jettySize=auto;html=1;exitX=0;exitY=0.5;exitDx=0;exitDy=0;exitPerimeter=0;" edge="1" parent="1">
          <mxGeometry relative="1" as="geometry">
            <mxPoint x="1159" y="780" as="targetPoint" />
            <mxPoint x="1071" y="395" as="sourcePoint" />
            <Array as="points">
              <mxPoint x="989" y="395" />
              <mxPoint x="989" y="780" />
            </Array>
          </mxGeometry>
        </mxCell>
        <mxCell id="55WT6WMvb4c44HyrS-Ii-24" value="Tidak" style="edgeLabel;html=1;align=center;verticalAlign=middle;resizable=0;points=[];" vertex="1" connectable="0" parent="55WT6WMvb4c44HyrS-Ii-22">
          <mxGeometry x="-0.1971" y="-1" relative="1" as="geometry">
            <mxPoint as="offset" />
          </mxGeometry>
        </mxCell>
        <mxCell id="FFGb-5vFVpJmypS58oWW-6" value="Apakah struktur data ada?" style="strokeWidth=2;html=1;shape=mxgraph.flowchart.decision;whiteSpace=wrap;" parent="1" vertex="1">
          <mxGeometry x="1072" y="310" width="190" height="170" as="geometry" />
        </mxCell>
        <mxCell id="FFGb-5vFVpJmypS58oWW-7" style="edgeStyle=orthogonalEdgeStyle;rounded=0;orthogonalLoop=1;jettySize=auto;html=1;exitX=0.5;exitY=1;exitDx=0;exitDy=0;entryX=0.5;entryY=0;entryDx=0;entryDy=0;entryPerimeter=0;" parent="1" source="FFGb-5vFVpJmypS58oWW-4" target="FFGb-5vFVpJmypS58oWW-6" edge="1">
          <mxGeometry relative="1" as="geometry" />
        </mxCell>
        <mxCell id="55WT6WMvb4c44HyrS-Ii-5" style="edgeStyle=orthogonalEdgeStyle;rounded=0;orthogonalLoop=1;jettySize=auto;html=1;exitX=0.5;exitY=1;exitDx=0;exitDy=0;exitPerimeter=0;entryX=0.5;entryY=0;entryDx=0;entryDy=0;" edge="1" parent="1" source="55WT6WMvb4c44HyrS-Ii-1" target="55WT6WMvb4c44HyrS-Ii-4">
          <mxGeometry relative="1" as="geometry" />
        </mxCell>
        <mxCell id="55WT6WMvb4c44HyrS-Ii-6" value="Ya" style="edgeLabel;html=1;align=center;verticalAlign=middle;resizable=0;points=[];" vertex="1" connectable="0" parent="55WT6WMvb4c44HyrS-Ii-5">
          <mxGeometry x="-0.2727" relative="1" as="geometry">
            <mxPoint as="offset" />
          </mxGeometry>
        </mxCell>
        <mxCell id="55WT6WMvb4c44HyrS-Ii-17" style="edgeStyle=orthogonalEdgeStyle;rounded=0;orthogonalLoop=1;jettySize=auto;html=1;exitX=1;exitY=0.5;exitDx=0;exitDy=0;exitPerimeter=0;entryX=0;entryY=0.5;entryDx=0;entryDy=0;" edge="1" parent="1" source="55WT6WMvb4c44HyrS-Ii-1" target="55WT6WMvb4c44HyrS-Ii-16">
          <mxGeometry relative="1" as="geometry" />
        </mxCell>
        <mxCell id="55WT6WMvb4c44HyrS-Ii-19" value="Tidak" style="edgeLabel;html=1;align=center;verticalAlign=middle;resizable=0;points=[];" vertex="1" connectable="0" parent="55WT6WMvb4c44HyrS-Ii-17">
          <mxGeometry x="-0.2" y="2" relative="1" as="geometry">
            <mxPoint as="offset" />
          </mxGeometry>
        </mxCell>
        <mxCell id="55WT6WMvb4c44HyrS-Ii-1" value="Apakah nim dari &lt;br&gt;mahasiswa yang dicari &lt;br&gt;merupakan data nim &lt;br&gt;dari elemen &lt;br&gt;linked-list yang &lt;br&gt;sedang dicek?" style="strokeWidth=2;html=1;shape=mxgraph.flowchart.decision;whiteSpace=wrap;" vertex="1" parent="1">
          <mxGeometry x="1072" y="510" width="190" height="170" as="geometry" />
        </mxCell>
        <mxCell id="55WT6WMvb4c44HyrS-Ii-2" style="edgeStyle=orthogonalEdgeStyle;rounded=0;orthogonalLoop=1;jettySize=auto;html=1;exitX=0.5;exitY=1;exitDx=0;exitDy=0;exitPerimeter=0;entryX=0.5;entryY=0;entryDx=0;entryDy=0;entryPerimeter=0;" edge="1" parent="1" source="FFGb-5vFVpJmypS58oWW-6" target="55WT6WMvb4c44HyrS-Ii-1">
          <mxGeometry relative="1" as="geometry" />
        </mxCell>
        <mxCell id="55WT6WMvb4c44HyrS-Ii-3" value="Ya" style="edgeLabel;html=1;align=center;verticalAlign=middle;resizable=0;points=[];" vertex="1" connectable="0" parent="55WT6WMvb4c44HyrS-Ii-2">
          <mxGeometry x="-0.2121" y="-1" relative="1" as="geometry">
            <mxPoint as="offset" />
          </mxGeometry>
        </mxCell>
        <mxCell id="55WT6WMvb4c44HyrS-Ii-4" value="Menampilkan semua data pada elemen linked-list" style="rounded=1;whiteSpace=wrap;html=1;absoluteArcSize=1;arcSize=14;strokeWidth=2;" vertex="1" parent="1">
          <mxGeometry x="1007" y="710" width="320" height="50" as="geometry" />
        </mxCell>
        <mxCell id="55WT6WMvb4c44HyrS-Ii-11" style="edgeStyle=orthogonalEdgeStyle;rounded=0;orthogonalLoop=1;jettySize=auto;html=1;exitX=1;exitY=0.5;exitDx=0;exitDy=0;exitPerimeter=0;entryX=0;entryY=0.5;entryDx=0;entryDy=0;" edge="1" parent="1" source="55WT6WMvb4c44HyrS-Ii-8" target="55WT6WMvb4c44HyrS-Ii-10">
          <mxGeometry relative="1" as="geometry">
            <mxPoint x="1320" y="875.4545454545453" as="targetPoint" />
          </mxGeometry>
        </mxCell>
        <mxCell id="55WT6WMvb4c44HyrS-Ii-14" value="Ya" style="edgeLabel;html=1;align=center;verticalAlign=middle;resizable=0;points=[];" vertex="1" connectable="0" parent="55WT6WMvb4c44HyrS-Ii-11">
          <mxGeometry x="-0.1105" relative="1" as="geometry">
            <mxPoint as="offset" />
          </mxGeometry>
        </mxCell>
        <mxCell id="55WT6WMvb4c44HyrS-Ii-8" value="Apakah found == 0?" style="strokeWidth=2;html=1;shape=mxgraph.flowchart.decision;whiteSpace=wrap;" vertex="1" parent="1">
          <mxGeometry x="1072" y="790" width="190" height="170" as="geometry" />
        </mxCell>
        <mxCell id="55WT6WMvb4c44HyrS-Ii-9" style="edgeStyle=orthogonalEdgeStyle;rounded=0;orthogonalLoop=1;jettySize=auto;html=1;exitX=0.5;exitY=1;exitDx=0;exitDy=0;entryX=0.5;entryY=0;entryDx=0;entryDy=0;entryPerimeter=0;" edge="1" parent="1" source="55WT6WMvb4c44HyrS-Ii-4" target="55WT6WMvb4c44HyrS-Ii-8">
          <mxGeometry relative="1" as="geometry" />
        </mxCell>
        <mxCell id="55WT6WMvb4c44HyrS-Ii-21" style="edgeStyle=orthogonalEdgeStyle;rounded=0;orthogonalLoop=1;jettySize=auto;html=1;exitX=0.5;exitY=1;exitDx=0;exitDy=0;" edge="1" parent="1" source="55WT6WMvb4c44HyrS-Ii-10">
          <mxGeometry relative="1" as="geometry">
            <mxPoint x="1180" y="1010" as="targetPoint" />
            <Array as="points">
              <mxPoint x="1487" y="1010" />
            </Array>
          </mxGeometry>
        </mxCell>
        <mxCell id="55WT6WMvb4c44HyrS-Ii-10" value="Tampilkan pesan bahwa tidak ada mahasiswa dengan nim tersebut" style="rounded=1;whiteSpace=wrap;html=1;absoluteArcSize=1;arcSize=14;strokeWidth=2;" vertex="1" parent="1">
          <mxGeometry x="1327" y="850" width="320" height="50" as="geometry" />
        </mxCell>
        <mxCell id="55WT6WMvb4c44HyrS-Ii-12" value="return" style="strokeWidth=2;html=1;shape=mxgraph.flowchart.start_1;whiteSpace=wrap;" vertex="1" parent="1">
          <mxGeometry x="1112.5" y="1030" width="110" height="60" as="geometry" />
        </mxCell>
        <mxCell id="55WT6WMvb4c44HyrS-Ii-13" style="edgeStyle=orthogonalEdgeStyle;rounded=0;orthogonalLoop=1;jettySize=auto;html=1;exitX=0.5;exitY=1;exitDx=0;exitDy=0;exitPerimeter=0;entryX=0.5;entryY=0;entryDx=0;entryDy=0;entryPerimeter=0;" edge="1" parent="1" source="55WT6WMvb4c44HyrS-Ii-8" target="55WT6WMvb4c44HyrS-Ii-12">
          <mxGeometry relative="1" as="geometry" />
        </mxCell>
        <mxCell id="55WT6WMvb4c44HyrS-Ii-15" value="Tidak" style="edgeLabel;html=1;align=center;verticalAlign=middle;resizable=0;points=[];" vertex="1" connectable="0" parent="55WT6WMvb4c44HyrS-Ii-13">
          <mxGeometry x="-0.1494" y="2" relative="1" as="geometry">
            <mxPoint y="-7" as="offset" />
          </mxGeometry>
        </mxCell>
        <mxCell id="55WT6WMvb4c44HyrS-Ii-18" style="edgeStyle=orthogonalEdgeStyle;rounded=0;orthogonalLoop=1;jettySize=auto;html=1;exitX=0.5;exitY=0;exitDx=0;exitDy=0;" edge="1" parent="1" source="55WT6WMvb4c44HyrS-Ii-16">
          <mxGeometry relative="1" as="geometry">
            <mxPoint x="1170" y="290" as="targetPoint" />
            <Array as="points">
              <mxPoint x="1474" y="290" />
            </Array>
          </mxGeometry>
        </mxCell>
        <mxCell id="55WT6WMvb4c44HyrS-Ii-16" value="Assign elemen linked-list yang sekarang dengan elemen linked selanjutnya" style="rounded=1;whiteSpace=wrap;html=1;absoluteArcSize=1;arcSize=14;strokeWidth=2;" vertex="1" parent="1">
          <mxGeometry x="1327" y="570" width="293" height="50" as="geometry" />
        </mxCell>
      </root>
    </mxGraphModel>
  </diagram>
</mxfile>
